<?xml version="1.0" standalone="no"?>
<!DOCTYPE svg PUBLIC "-//W3C//DTD SVG 20010904//EN"
 "http://www.w3.org/TR/2001/REC-SVG-20010904/DTD/svg10.dtd">
<svg version="1.0" xmlns="http://www.w3.org/2000/svg"
 width="485.000000pt" height="300.000000pt" viewBox="0 0 485.000000 300.000000"
 preserveAspectRatio="xMidYMid meet">

<g transform="translate(0.000000,300.000000) scale(0.100000,-0.100000)"
fill="#000000" stroke="none">
<path d="M2225 2873 c-32 -2 -64 -8 -70 -13 -5 -5 -38 -12 -73 -16 -34 -3 -65
-11 -68 -15 -3 -5 -16 -9 -30 -9 -13 0 -24 -4 -24 -9 0 -6 -20 -13 -45 -17
-25 -3 -45 -10 -45 -15 0 -4 -17 -11 -37 -15 -21 -4 -40 -10 -43 -13 -7 -10
-76 -41 -89 -41 -6 0 -11 -4 -11 -9 0 -5 -8 -12 -17 -15 -33 -13 -63 -31 -63
-38 0 -5 -6 -8 -13 -8 -8 0 -22 -9 -32 -20 -10 -11 -24 -20 -31 -20 -8 0 -19
-9 -26 -20 -7 -11 -18 -20 -24 -20 -16 0 -242 -227 -249 -250 -3 -10 -12 -21
-20 -24 -8 -3 -15 -12 -15 -19 0 -8 -7 -20 -15 -27 -9 -7 -32 -46 -51 -87 -19
-40 -40 -73 -45 -73 -5 0 -9 -8 -9 -17 0 -10 -7 -31 -15 -47 -8 -16 -18 -46
-21 -67 -4 -22 -10 -39 -15 -39 -5 0 -9 -7 -9 -15 0 -21 30 -19 46 3 7 9 14
27 14 40 0 12 4 22 10 22 5 0 13 18 16 40 4 22 10 40 14 40 5 0 11 14 15 30 4
17 10 30 15 30 4 0 10 8 14 18 5 17 26 52 36 62 7 7 29 43 37 60 4 8 19 28 35
43 15 16 28 33 28 38 0 13 167 179 180 179 7 0 26 16 43 35 17 19 37 35 44 35
8 0 16 7 19 15 4 8 12 15 19 15 8 0 20 6 27 13 21 20 75 47 92 47 9 0 16 4 16
9 0 5 12 12 27 16 15 3 30 10 33 13 11 15 69 42 89 42 12 0 21 5 21 10 0 6 9
10 20 10 25 0 26 -16 3 -24 -28 -9 -55 -28 -91 -63 -18 -18 -37 -33 -41 -33
-10 0 -111 -98 -111 -109 0 -4 -13 -21 -30 -37 -16 -16 -30 -34 -30 -40 0 -6
-11 -21 -25 -34 -14 -13 -25 -29 -25 -37 0 -7 -4 -13 -9 -13 -5 0 -11 -8 -15
-17 -3 -10 -29 -60 -56 -112 -28 -51 -53 -111 -56 -132 -4 -22 -10 -39 -15
-39 -5 0 -9 -11 -9 -25 0 -14 -4 -25 -9 -25 -5 0 -13 -25 -16 -55 -4 -30 -11
-55 -16 -55 -5 0 -9 -7 -9 -16 0 -11 8 -14 28 -12 23 3 27 8 30 41 2 20 7 37
11 37 5 0 11 20 14 45 6 40 22 82 38 95 3 3 9 22 13 43 4 20 11 37 16 37 6 0
10 4 10 10 0 16 34 90 42 90 3 0 9 14 13 30 4 17 10 30 14 30 3 0 15 15 25 34
10 19 25 37 32 40 8 3 14 11 14 17 0 6 18 29 40 51 22 22 40 45 40 50 0 13 26
38 39 38 6 0 28 18 48 40 21 22 43 40 48 40 6 0 18 9 28 20 9 11 24 20 32 20
8 0 15 3 15 8 0 7 30 25 63 38 9 3 17 10 17 15 0 5 18 12 40 15 22 4 40 10 40
15 0 5 7 9 15 9 24 0 18 -13 -30 -60 -25 -24 -45 -48 -45 -53 0 -6 -10 -20
-22 -31 -30 -29 -37 -41 -103 -172 -31 -62 -59 -128 -62 -148 -3 -20 -9 -36
-13 -36 -4 0 -11 -20 -14 -45 -4 -25 -11 -45 -17 -45 -5 0 -9 -11 -9 -24 0
-14 -4 -27 -9 -30 -5 -4 -12 -40 -16 -81 -4 -41 -11 -75 -15 -75 -5 0 -10 -25
-12 -55 -2 -46 0 -55 13 -55 28 0 36 22 44 108 4 45 11 82 15 82 4 0 11 27 15
60 4 33 11 63 16 66 5 3 9 16 9 30 0 13 4 24 9 24 6 0 13 20 17 45 3 25 10 45
15 45 5 0 9 5 9 11 0 6 7 26 15 45 8 19 22 50 30 69 9 19 20 35 25 35 4 0 11
14 15 30 4 17 15 36 26 43 10 6 19 17 19 22 0 23 106 145 126 145 8 0 14 4 14
9 0 5 10 13 22 17 12 3 29 15 37 26 21 25 91 37 91 15 0 -8 -4 -17 -9 -19 -14
-5 -71 -116 -71 -137 0 -12 -4 -21 -9 -21 -5 0 -13 -25 -16 -55 -4 -30 -11
-58 -16 -61 -5 -3 -9 -18 -9 -35 0 -16 -4 -29 -9 -29 -5 0 -12 -35 -16 -77 -4
-43 -11 -80 -15 -83 -5 -3 -12 -60 -16 -128 -4 -67 -11 -122 -15 -122 -5 0 -9
-36 -9 -80 0 -73 2 -80 20 -80 18 0 20 7 20 85 0 50 4 85 10 85 6 0 10 28 10
65 0 36 4 65 9 65 4 0 11 42 15 92 4 51 11 95 15 98 5 3 12 35 15 72 4 37 12
70 17 73 5 4 9 17 9 31 0 13 4 24 9 24 4 0 11 19 14 42 3 24 11 44 16 46 6 2
11 8 11 14 0 44 84 148 120 148 37 0 120 -104 120 -149 0 -6 4 -11 10 -11 5 0
13 -18 16 -40 4 -22 10 -40 15 -40 5 0 9 -13 9 -29 0 -17 4 -32 9 -35 5 -3 12
-33 16 -66 4 -33 11 -60 15 -60 4 0 11 -47 15 -105 4 -58 11 -105 16 -105 5 0
9 -29 9 -65 0 -37 4 -65 10 -65 6 0 10 -35 10 -85 0 -78 2 -85 20 -85 18 0 20
7 20 84 0 47 -4 87 -9 90 -5 3 -12 58 -16 121 -4 63 -10 115 -15 115 -4 0 -10
37 -14 82 -4 46 -11 87 -16 92 -6 6 -10 20 -10 33 0 13 -4 23 -9 23 -5 0 -12
25 -16 55 -3 30 -11 55 -16 55 -5 0 -9 9 -9 21 0 21 -56 129 -73 140 -5 4 -5
9 2 13 12 8 48 -11 78 -41 12 -13 26 -23 30 -23 12 -1 83 -69 83 -80 0 -5 10
-20 23 -33 26 -27 43 -53 57 -84 5 -13 13 -23 17 -23 9 0 43 -73 43 -90 0 -6
4 -10 9 -10 5 0 11 -18 15 -40 3 -22 11 -40 16 -40 6 0 10 -11 10 -25 0 -14 4
-25 9 -25 5 0 12 -19 16 -42 4 -24 11 -46 16 -49 5 -3 12 -33 15 -67 4 -34 11
-62 15 -62 5 0 9 -17 9 -38 0 -21 4 -42 9 -47 6 -6 11 -30 13 -55 3 -42 5 -45
33 -47 17 -1 24 0 18 3 -8 4 -13 26 -13 59 0 30 -4 56 -9 59 -5 3 -12 37 -16
76 -4 38 -11 70 -15 70 -5 0 -12 25 -15 55 -4 30 -11 55 -16 55 -5 0 -9 11 -9
25 0 14 -4 25 -10 25 -5 0 -13 18 -16 40 -4 22 -10 40 -14 40 -5 0 -11 14 -15
30 -4 17 -10 30 -13 30 -8 0 -42 74 -42 90 0 6 -4 10 -9 10 -5 0 -11 8 -15 18
-8 24 -27 52 -53 78 -13 11 -23 25 -23 31 0 5 -20 29 -45 53 -25 24 -45 49
-45 54 0 6 5 5 12 -2 7 -7 18 -12 26 -12 21 0 116 -46 131 -64 7 -9 20 -16 28
-16 7 0 16 -7 19 -15 4 -8 13 -15 22 -15 8 0 31 -17 51 -38 20 -21 48 -46 64
-55 15 -10 27 -22 27 -27 0 -6 18 -28 40 -50 22 -22 40 -45 40 -51 0 -6 11
-20 25 -31 14 -11 25 -26 25 -34 0 -8 4 -14 9 -14 5 0 13 -10 17 -22 4 -13 9
-25 13 -28 12 -10 41 -69 41 -84 0 -9 4 -16 9 -16 5 0 12 -13 16 -30 4 -16 10
-30 13 -30 10 0 32 -53 39 -94 3 -20 9 -36 14 -36 4 0 11 -25 14 -55 4 -30 11
-55 16 -55 5 0 9 -7 9 -15 0 -8 9 -15 20 -15 18 0 20 4 14 43 -4 23 -11 44
-15 47 -4 3 -11 29 -15 58 -3 28 -10 52 -15 52 -5 0 -9 9 -9 20 0 11 -4 20
-10 20 -5 0 -10 8 -10 18 -1 9 -9 35 -20 57 -11 22 -19 46 -20 53 0 6 -3 12
-7 12 -5 0 -17 18 -27 40 -11 22 -23 40 -27 40 -4 0 -10 12 -13 26 -4 14 -18
38 -31 52 -14 15 -25 30 -25 35 0 4 -16 23 -35 41 -19 19 -35 38 -35 43 0 11
-113 123 -124 123 -5 0 -19 11 -31 24 -12 13 -32 27 -43 31 -12 3 -22 11 -22
16 0 5 -6 9 -12 9 -7 0 -22 8 -33 16 -19 14 -17 15 20 8 22 -4 42 -11 43 -15
2 -5 13 -9 24 -9 21 0 81 -29 86 -42 2 -5 14 -8 27 -8 13 0 26 -4 29 -9 4 -5
27 -20 54 -32 26 -13 53 -29 60 -36 7 -7 18 -13 23 -13 10 0 13 -2 70 -50 20
-16 40 -30 43 -30 11 0 196 -187 196 -197 0 -5 14 -22 30 -38 17 -16 30 -35
30 -42 0 -7 4 -13 9 -13 5 0 13 -10 17 -22 4 -13 15 -29 25 -36 9 -6 20 -26
24 -42 4 -17 10 -30 15 -30 5 0 11 -13 15 -30 4 -16 11 -30 16 -30 5 0 9 -10
9 -22 0 -13 7 -32 15 -42 8 -11 15 -30 15 -43 0 -13 5 -23 10 -23 6 0 10 -7
10 -15 0 -8 9 -15 20 -15 18 0 20 4 14 43 -4 23 -10 44 -14 47 -8 7 -40 75
-40 87 0 15 -31 73 -38 73 -8 0 -42 74 -42 89 0 5 -7 11 -15 15 -8 3 -15 11
-15 19 0 7 -11 24 -25 37 -14 13 -25 27 -25 32 0 10 -210 217 -264 261 -18 15
-39 27 -45 27 -6 0 -11 4 -11 9 0 5 -10 13 -22 17 -13 4 -25 9 -28 13 -8 10
-44 31 -62 37 -10 4 -18 10 -18 14 0 5 -13 11 -30 15 -16 4 -30 10 -30 13 0 8
-44 28 -83 38 -15 3 -30 10 -32 15 -3 4 -26 11 -50 15 -25 3 -45 10 -45 15 0
5 -11 9 -24 9 -14 0 -27 4 -31 9 -3 5 -31 12 -63 16 -31 3 -66 11 -76 16 -20
11 -365 20 -471 12z m-40 -73 c3 -5 1 -10 -4 -10 -6 0 -11 5 -11 10 0 6 2 10
4 10 3 0 8 -4 11 -10z"/>
<path d="M360 1485 l0 -197 132 4 c94 2 133 7 136 16 2 6 9 12 15 12 7 0 29
16 50 35 l37 35 0 100 c0 60 -4 100 -10 100 -5 0 -10 6 -10 14 0 7 -8 16 -17
20 -23 7 -56 28 -65 41 -4 6 -66 11 -138 13 l-130 4 0 -197z m254 150 c8 -8
21 -15 29 -15 22 0 44 -30 62 -84 16 -46 16 -52 0 -103 -15 -46 -24 -59 -64
-84 -25 -16 -58 -29 -73 -29 l-28 0 0 165 0 165 29 0 c16 0 36 -7 45 -15z"/>
<path d="M2131 1638 c4 -24 8 -62 9 -85 0 -41 2 -43 29 -43 17 0 32 4 35 9 4
5 9 43 13 85 l6 76 -50 0 -50 0 8 -42z"/>
<path d="M3900 1485 l0 -195 73 0 72 0 1 195 0 195 -73 0 -73 0 0 -195z"/>
<path d="M4330 1629 l0 -50 -29 20 c-16 12 -39 21 -50 21 -33 0 -103 -39 -108
-61 -3 -10 -9 -19 -13 -19 -4 0 -11 -11 -14 -25 -4 -14 -11 -25 -16 -25 -13 0
-13 -35 1 -83 24 -87 137 -146 195 -102 25 19 34 19 34 0 0 -12 14 -15 70 -15
l70 0 0 195 0 195 -70 0 -70 0 0 -51z m-37 -53 c9 -7 17 -18 17 -25 0 -6 5
-11 10 -11 6 0 10 -37 10 -91 0 -82 -2 -93 -22 -110 -47 -38 -58 -19 -58 101
0 81 9 150 19 150 3 0 14 -7 24 -14z"/>
<path d="M1706 1632 c-4 -7 -33 -12 -73 -12 -85 0 -144 -34 -164 -92 -11 -35
-10 -41 9 -68 22 -30 29 -60 14 -60 -19 0 -32 -49 -21 -74 13 -29 35 -36 111
-36 31 0 60 -4 63 -10 9 -14 48 -13 63 2 7 7 12 27 12 45 l0 33 -94 0 c-92 0
-121 9 -98 32 6 6 12 6 16 -1 9 -14 103 -15 111 -1 3 6 15 10 26 10 10 0 19 7
19 15 0 8 4 15 8 15 5 0 15 18 22 41 11 32 11 45 2 60 -7 10 -12 28 -12 39 0
11 -5 20 -11 20 -8 0 -8 4 1 15 6 8 10 20 8 27 -3 9 -6 9 -12 0z m-92 -44 c16
-61 2 -188 -20 -188 -11 0 -14 23 -14 105 0 83 3 105 14 105 7 0 16 -10 20
-22z"/>
<path d="M1305 1620 c-82 -7 -145 -32 -152 -60 -3 -11 -9 -20 -14 -20 -15 0
-10 -77 6 -90 8 -7 15 -20 15 -30 0 -10 -7 -23 -15 -30 -8 -7 -15 -25 -15 -41
0 -44 31 -59 126 -59 57 0 84 -4 87 -12 5 -15 32 4 48 33 21 40 3 49 -96 49
-70 0 -96 4 -105 15 -10 12 -9 16 5 21 9 4 21 2 28 -5 6 -6 33 -11 60 -11 44
0 52 4 88 43 21 23 42 52 45 65 7 26 -19 87 -43 100 -13 8 -12 11 8 26 13 9
17 15 9 14 -8 -1 -46 -4 -85 -8z m5 -36 c11 -29 13 -91 4 -146 -5 -28 -11 -38
-25 -38 -17 0 -19 9 -19 98 0 54 3 102 7 105 12 13 24 7 33 -19z"/>
<path d="M870 1607 c-27 -13 -60 -43 -60 -55 0 -4 -11 -24 -25 -44 -23 -34
-24 -41 -15 -86 28 -130 183 -176 288 -86 l42 36 0 73 c0 52 -4 76 -15 85 -8
7 -15 17 -15 22 0 47 -137 84 -200 55z m122 -9 c27 -16 48 -34 48 -43 0 -3 12
-22 26 -40 23 -30 25 -40 19 -88 -6 -50 -11 -57 -55 -91 -31 -24 -58 -36 -79
-36 l-31 0 0 155 0 155 25 0 c14 0 35 -6 47 -12z"/>
<path d="M1861 1597 c-35 -17 -48 -30 -58 -62 -7 -21 -18 -42 -25 -46 -24 -15
18 -154 50 -166 9 -4 20 -11 24 -16 12 -19 113 -20 152 -2 20 10 36 22 36 27
0 6 11 19 25 30 21 16 25 28 25 71 0 39 -6 62 -25 89 -14 20 -25 43 -25 51 0
17 -68 47 -106 47 -16 -1 -49 -11 -73 -23z m121 1 c35 -20 47 -34 54 -62 3
-14 10 -29 15 -32 15 -9 10 -114 -7 -143 -19 -32 -66 -61 -100 -61 l-24 0 0
148 c0 82 3 152 7 155 10 11 31 8 55 -5z"/>
<path d="M2330 1610 c0 -5 -7 -10 -15 -10 -8 0 -19 -9 -26 -21 -15 -28 -15
-112 -1 -117 7 -2 12 -14 12 -28 0 -24 27 -64 44 -64 13 0 46 -41 46 -57 0
-24 -55 -15 -84 13 -19 20 -26 23 -26 11 0 -45 134 -65 206 -31 34 16 34 17
34 84 0 73 -16 100 -58 100 -12 0 -22 4 -22 9 0 6 -12 16 -27 23 -22 10 -29
21 -31 51 -3 34 -1 37 23 37 32 0 85 -35 85 -56 0 -8 7 -14 15 -14 9 0 15 9
15 23 0 17 -10 27 -38 40 -42 18 -152 23 -152 7z"/>
<path d="M2704 1598 c4 -13 11 -39 15 -58 4 -19 19 -48 34 -64 16 -17 27 -40
27 -57 0 -31 56 -119 76 -119 13 0 64 98 64 123 0 23 24 39 38 25 7 -7 12 -18
12 -25 0 -8 11 -26 25 -41 14 -15 25 -34 25 -42 0 -19 19 -40 35 -40 11 0 37
52 50 100 11 40 35 90 44 90 7 0 16 16 52 92 7 16 9 31 5 35 -13 13 -41 -14
-53 -53 -7 -21 -16 -47 -19 -56 -12 -35 -44 -20 -66 30 -11 26 -25 49 -29 50
-5 2 -9 10 -9 18 0 35 -28 9 -47 -43 -13 -38 -28 -62 -43 -70 -31 -15 -36 -11
-60 45 -35 80 -31 77 -110 80 -72 3 -72 3 -66 -20z"/>
<path d="M3289 1596 c-24 -17 -39 -37 -48 -65 -6 -23 -16 -41 -21 -41 -15 0
-12 -42 7 -100 22 -67 66 -100 136 -100 57 0 117 25 117 49 0 9 -3 12 -8 6
-14 -21 -62 -45 -87 -45 l-25 0 0 150 c0 128 2 152 16 157 25 9 84 -26 97 -57
3 -9 6 -5 6 11 1 20 -7 29 -37 42 -55 24 -110 22 -153 -7z"/>
<path d="M3577 1613 c-4 -3 -7 -78 -7 -165 l0 -158 75 0 75 0 0 125 c0 77 4
125 10 125 6 0 10 6 10 13 0 7 9 18 21 25 16 10 27 10 54 1 27 -10 37 -10 49
1 12 10 14 16 5 26 -15 19 -87 18 -105 -1 -9 -8 -22 -15 -30 -15 -8 0 -14 7
-14 15 0 12 -14 15 -68 15 -38 0 -72 -3 -75 -7z"/>
<path d="M3483 1444 c-1 -53 2 -74 10 -71 13 4 21 88 12 124 -11 44 -20 22
-22 -53z"/>
<path d="M1074 1063 c10 -38 30 -83 37 -83 4 0 10 -11 13 -25 4 -14 10 -25 15
-25 5 0 12 -13 16 -28 3 -15 15 -34 25 -42 11 -8 20 -19 20 -26 0 -6 9 -19 20
-29 11 -10 20 -22 20 -27 0 -11 237 -248 248 -248 5 0 17 -9 27 -20 10 -11 23
-20 29 -20 7 0 18 -9 26 -20 8 -10 27 -22 42 -25 15 -4 28 -10 28 -15 0 -5 10
-12 23 -16 12 -4 24 -10 27 -13 7 -10 76 -41 89 -41 6 0 11 -4 11 -9 0 -5 14
-13 32 -16 30 -7 39 -11 88 -35 10 -5 37 -13 60 -16 22 -4 40 -10 40 -14 0 -5
32 -11 70 -15 39 -4 73 -11 76 -16 3 -5 30 -9 60 -9 30 0 54 -4 54 -10 0 -13
307 -13 315 0 3 6 31 10 61 10 30 0 54 4 54 9 0 4 32 12 70 15 39 4 70 11 70
15 0 5 18 11 40 15 23 3 51 11 63 18 46 23 57 28 69 28 14 0 141 61 148 71 3
4 17 10 32 14 15 4 32 13 39 21 6 8 16 14 22 14 5 0 17 8 26 19 9 10 26 21 39
25 12 4 22 12 22 17 0 5 5 9 12 9 14 0 258 244 258 258 0 6 11 19 25 30 14 11
25 25 25 30 0 6 6 17 13 24 18 20 37 50 43 71 4 9 10 17 15 17 5 0 9 6 9 13 0
6 6 24 14 39 8 15 17 40 21 57 6 27 4 31 -14 31 -12 0 -21 -6 -21 -15 0 -8 -4
-15 -10 -15 -5 0 -10 -5 -10 -11 0 -19 -47 -114 -64 -128 -9 -7 -16 -20 -16
-28 0 -7 -7 -16 -15 -19 -8 -4 -15 -11 -15 -18 0 -6 -11 -23 -25 -38 -14 -15
-25 -31 -25 -35 0 -10 -194 -203 -205 -203 -4 0 -18 -11 -30 -24 -12 -13 -32
-27 -43 -31 -12 -3 -22 -10 -22 -15 0 -4 -8 -10 -17 -14 -18 -5 -53 -26 -63
-36 -10 -10 -45 -31 -62 -36 -10 -4 -18 -10 -18 -14 0 -4 -18 -10 -40 -14 -22
-3 -40 -11 -40 -16 0 -5 -18 -13 -40 -16 -22 -4 -40 -10 -40 -15 0 -5 -11 -9
-25 -9 -14 0 -25 -4 -25 -10 0 -5 -7 -10 -15 -10 -8 0 -15 5 -15 10 0 6 7 10
15 10 8 0 15 4 15 9 0 5 8 11 18 15 24 8 52 27 78 54 11 12 25 22 31 22 11 0
143 131 143 142 0 4 12 21 28 37 33 36 65 80 74 103 4 10 12 18 18 18 5 0 10
4 10 10 0 16 34 90 42 90 3 0 9 14 13 30 4 17 11 30 16 30 5 0 12 18 15 40 4
22 9 40 13 40 8 0 28 48 34 83 3 21 0 27 -13 27 -22 0 -35 -17 -44 -55 -9 -39
-29 -85 -37 -85 -4 0 -9 -18 -13 -40 -3 -22 -10 -40 -14 -40 -7 0 -25 -30 -38
-62 -3 -10 -10 -18 -15 -18 -5 0 -9 -6 -9 -14 0 -8 -6 -21 -12 -28 -15 -16
-36 -47 -45 -68 -4 -8 -24 -32 -45 -52 -21 -21 -38 -43 -38 -48 0 -13 -71 -80
-85 -80 -5 -1 -21 -14 -35 -30 -13 -17 -28 -30 -33 -30 -8 0 -28 -14 -84 -60
-7 -6 -15 -10 -19 -10 -10 0 -79 -33 -84 -41 -8 -11 -60 -22 -60 -14 0 5 24
31 53 60 51 50 70 74 84 105 4 8 13 21 20 28 7 7 13 20 13 28 0 8 5 14 10 14
6 0 10 6 10 14 0 7 7 19 15 26 8 7 15 23 15 36 0 13 4 24 9 24 5 0 12 14 16
30 4 16 11 30 16 30 5 0 9 10 9 23 0 13 7 32 15 43 8 10 15 29 15 42 0 12 4
22 9 22 5 0 12 24 16 53 4 28 11 54 16 57 4 3 11 36 15 73 6 64 6 67 -15 67
-17 0 -21 -6 -21 -30 0 -16 -4 -30 -9 -30 -4 0 -11 -28 -15 -62 -3 -34 -10
-64 -15 -67 -4 -3 -11 -23 -15 -45 -4 -21 -11 -46 -16 -55 -17 -33 -40 -89
-40 -99 0 -14 -52 -114 -67 -130 -7 -7 -13 -19 -13 -27 0 -7 -7 -15 -15 -19
-8 -3 -15 -11 -15 -19 0 -7 -11 -23 -25 -35 -14 -12 -25 -28 -25 -34 0 -7 -15
-25 -33 -40 -86 -73 -105 -88 -116 -88 -6 0 -11 -4 -11 -10 0 -5 -5 -10 -11
-10 -11 0 -2 40 10 50 11 8 41 77 41 93 0 9 4 18 9 21 5 4 12 24 16 46 4 22
11 42 16 46 5 3 9 18 9 33 0 15 4 31 10 37 5 5 12 46 16 92 4 45 10 82 14 82
5 0 11 52 15 115 4 63 11 118 16 121 5 3 9 18 9 35 0 22 -5 29 -20 29 -16 0
-20 -7 -20 -30 0 -16 -4 -30 -10 -30 -6 0 -10 -32 -10 -75 0 -41 -4 -75 -9
-75 -5 0 -12 -43 -16 -95 -4 -52 -11 -95 -15 -95 -5 0 -11 -27 -15 -60 -4 -33
-11 -63 -16 -66 -5 -3 -9 -18 -9 -35 0 -16 -4 -29 -9 -29 -5 0 -11 -18 -15
-40 -3 -22 -11 -40 -16 -40 -6 0 -10 -10 -10 -23 0 -24 -25 -67 -47 -80 -7 -4
-13 -13 -13 -20 0 -7 -13 -18 -30 -25 -25 -11 -35 -11 -60 0 -16 7 -30 19 -30
26 0 7 -7 15 -15 18 -8 4 -15 15 -15 25 0 10 -4 19 -9 19 -5 0 -12 13 -16 30
-4 16 -11 30 -16 30 -5 0 -12 18 -15 40 -4 22 -10 40 -15 40 -5 0 -9 13 -9 29
0 17 -4 32 -9 36 -5 3 -13 36 -17 73 -3 37 -10 69 -15 72 -4 3 -11 47 -15 98
-4 50 -11 92 -15 92 -5 0 -9 29 -9 65 0 37 -4 65 -10 65 -5 0 -10 14 -10 30 0
23 -4 30 -20 30 -22 0 -26 -20 -10 -48 5 -9 12 -70 16 -134 3 -65 10 -118 14
-118 4 0 11 -36 15 -80 4 -44 11 -80 16 -80 5 0 9 -13 9 -29 0 -17 4 -32 9
-35 4 -3 11 -28 15 -55 4 -28 11 -53 16 -56 6 -3 10 -13 10 -21 0 -20 33 -94
42 -94 5 0 8 -5 8 -12 0 -6 7 -20 17 -30 15 -17 15 -18 -6 -18 -32 0 -104 35
-121 59 -8 12 -20 21 -26 21 -15 0 -57 40 -80 76 -10 16 -24 33 -31 37 -7 4
-13 13 -13 19 0 9 -12 26 -60 85 -5 6 -12 23 -16 37 -3 14 -10 26 -15 26 -5 0
-9 9 -9 20 0 11 -4 20 -10 20 -5 0 -10 8 -10 18 0 9 -7 30 -15 46 -8 16 -18
46 -21 67 -4 22 -10 39 -15 39 -5 0 -9 11 -9 24 0 14 -4 27 -10 31 -5 3 -12
32 -16 65 -4 33 -11 60 -15 60 -5 0 -9 14 -9 30 0 24 -4 30 -21 30 -21 0 -21
-3 -15 -67 4 -38 11 -69 16 -71 6 -2 10 -15 10 -28 0 -13 4 -24 9 -24 5 0 12
-25 16 -55 3 -30 10 -55 15 -55 5 0 12 -17 16 -37 4 -21 10 -40 14 -43 10 -7
70 -135 70 -148 0 -7 4 -12 9 -12 5 0 11 -8 15 -17 8 -26 28 -55 54 -80 12
-12 22 -26 22 -30 0 -5 24 -33 53 -62 l52 -54 -35 7 c-41 8 -90 28 -90 38 0 3
-13 9 -30 13 -16 4 -30 10 -30 15 0 5 -10 12 -22 16 -13 4 -30 15 -39 25 -9
11 -21 19 -26 19 -5 0 -27 18 -48 40 -21 22 -43 40 -48 40 -13 0 -57 43 -57
55 0 6 -18 29 -40 50 -22 21 -40 44 -40 50 0 6 -9 17 -20 25 -11 8 -20 20 -20
26 0 6 -6 17 -14 23 -8 7 -17 24 -21 39 -4 15 -10 29 -14 32 -10 7 -71 134
-71 148 0 7 -4 12 -10 12 -5 0 -10 11 -10 25 0 14 -4 25 -9 25 -5 0 -11 12
-13 28 -2 22 -8 27 -33 29 -16 1 -24 0 -17 -3 6 -3 12 -16 12 -29 0 -13 4 -26
9 -30 6 -3 13 -26 17 -50 3 -25 10 -45 14 -45 4 0 11 -12 15 -27 3 -15 10 -30
13 -33 13 -10 42 -68 42 -84 0 -9 5 -16 10 -16 6 0 10 -7 10 -15 0 -9 7 -18
15 -21 8 -4 15 -15 15 -25 0 -10 5 -19 10 -19 6 0 13 -8 17 -17 11 -32 191
-232 209 -232 6 -1 21 -12 34 -26 13 -14 29 -25 37 -25 7 0 13 -4 13 -10 0 -5
11 -12 25 -16 30 -7 33 -24 5 -24 -11 0 -20 4 -20 9 0 5 -18 11 -40 15 -22 3
-40 10 -40 16 0 5 -15 12 -34 16 -19 3 -42 14 -51 24 -10 11 -30 22 -46 25
-16 4 -29 10 -29 15 0 4 -8 10 -17 14 -25 8 -57 29 -66 44 -4 6 -14 12 -21 12
-7 0 -23 11 -36 25 -13 14 -27 25 -32 25 -12 0 -208 196 -208 207 0 5 -11 20
-25 33 -14 13 -25 29 -25 37 0 7 -4 13 -9 13 -10 0 -34 38 -47 73 -3 9 -10 17
-15 17 -5 0 -9 9 -9 20 0 11 -4 20 -9 20 -5 0 -12 14 -16 30 -4 17 -11 30 -16
30 -5 0 -9 7 -9 15 0 9 -9 15 -21 15 -18 0 -20 -4 -15 -27z m906 -733 c0 -5
-4 -10 -10 -10 -5 0 -10 5 -10 10 0 6 5 10 10 10 6 0 10 -4 10 -10z m210 -30
c0 -5 -4 -10 -10 -10 -5 0 -10 5 -10 10 0 6 5 10 10 10 6 0 10 -4 10 -10z"/>
</g>
</svg>
